<svg xmlns="http://www.w3.org/2000/svg" viewBox="0 0 100 100">
  <!-- Background circle -->
  <circle cx="50" cy="50" r="48" fill="#2563eb" stroke="#1e40af" stroke-width="2"/>

  <!-- Book/Reader icon -->
  <g transform="translate(50, 50)">
    <!-- Open book pages -->
    <path d="M -25 -15 Q -25 -20, -20 -20 L -5 -20 Q 0 -20, 0 -15 L 0 20 Q 0 25, -5 25 L -20 25 Q -25 25, -25 20 Z"
          fill="#ffffff" opacity="0.95"/>
    <path d="M 25 -15 Q 25 -20, 20 -20 L 5 -20 Q 0 -20, 0 -15 L 0 20 Q 0 25, 5 25 L 20 25 Q 25 25, 25 20 Z"
          fill="#ffffff" opacity="0.95"/>

    <!-- Book spine/center -->
    <rect x="-1" y="-20" width="2" height="45" fill="#1e40af"/>

    <!-- Reading lines (left page) -->
    <line x1="-20" y1="-10" x2="-5" y2="-10" stroke="#2563eb" stroke-width="1.5" opacity="0.5"/>
    <line x1="-20" y1="-5" x2="-5" y2="-5" stroke="#2563eb" stroke-width="1.5" opacity="0.5"/>
    <line x1="-20" y1="0" x2="-5" y2="0" stroke="#2563eb" stroke-width="1.5" opacity="0.5"/>
    <line x1="-20" y1="5" x2="-8" y2="5" stroke="#2563eb" stroke-width="1.5" opacity="0.5"/>

    <!-- Reading lines (right page) -->
    <line x1="5" y1="-10" x2="20" y2="-10" stroke="#2563eb" stroke-width="1.5" opacity="0.5"/>
    <line x1="5" y1="-5" x2="20" y2="-5" stroke="#2563eb" stroke-width="1.5" opacity="0.5"/>
    <line x1="5" y1="0" x2="20" y2="0" stroke="#2563eb" stroke-width="1.5" opacity="0.5"/>
    <line x1="8" y1="5" x2="20" y2="5" stroke="#2563eb" stroke-width="1.5" opacity="0.5"/>

    <!-- Bookmark -->
    <path d="M 15 -20 L 15 10 L 18 7 L 21 10 L 21 -20 Z" fill="#dc2626" opacity="0.9"/>
  </g>
</svg>
